<svg xmlns="http://www.w3.org/2000/svg" width="672" height="64" viewBox="0 0 672 64" shape-rendering="crispEdges">
  <defs>
    <style>
      .o{fill:#161113}.h{fill:#17191c}.h2{fill:#303137}.skin{fill:#f0bd91}.skin2{fill:#d99270}.j{fill:#17191f}.j2{fill:#2e343b}.shirt{fill:#ece9dd}.red{fill:#cf3430}.belt{fill:#24211f}.shoe{fill:#101014}.flame{fill:#ff8a22}.flame2{fill:#ffd166}
    </style>
    <g id="body">
      <rect class="o" x="13" y="27" width="22" height="22"/><rect class="j" x="15" y="29" width="18" height="19"/><rect class="j2" x="15" y="29" width="5" height="19"/><rect class="shirt" x="20" y="30" width="8" height="18"/><rect class="red" x="15" y="39" width="18" height="3"/>
      <rect class="o" x="15" y="47" width="8" height="12"/><rect class="o" x="25" y="47" width="8" height="12"/><rect class="j2" x="17" y="47" width="5" height="11"/><rect class="j2" x="26" y="47" width="5" height="11"/><rect class="shoe" x="14" y="58" width="10" height="3"/><rect class="shoe" x="25" y="58" width="10" height="3"/>
      <rect class="o" x="12" y="11" width="24" height="20"/><rect class="skin" x="14" y="14" width="20" height="16"/><rect class="skin2" x="30" y="21" width="3" height="4"/><rect class="h" x="10" y="7" width="29" height="8"/><rect class="h" x="13" y="14" width="8" height="6"/><rect class="h2" x="22" y="7" width="12" height="3"/><rect class="red" x="13" y="11" width="22" height="2"/><rect class="o" x="21" y="22" width="3" height="3"/><rect class="o" x="29" y="22" width="3" height="3"/>
    </g>
    <g id="idle">
      <use href="#body"/><rect class="o" x="9" y="29" width="6" height="17"/><rect class="skin" x="10" y="31" width="4" height="14"/><rect class="o" x="33" y="29" width="6" height="17"/><rect class="skin" x="34" y="31" width="4" height="14"/>
    </g>
    <g id="crouch">
      <g transform="translate(0,7)"><use href="#body"/></g><rect class="o" x="11" y="52" width="26" height="7"/><rect class="j2" x="13" y="52" width="20" height="5"/><rect class="o" x="8" y="38" width="8" height="15"/><rect class="skin" x="10" y="39" width="5" height="12"/><rect class="o" x="31" y="39" width="8" height="15"/><rect class="skin" x="32" y="40" width="5" height="12"/>
    </g>
    <g id="guard">
      <use href="#body"/><rect class="o" x="14" y="27" width="9" height="24"/><rect class="skin" x="16" y="29" width="6" height="19"/><rect class="o" x="25" y="27" width="9" height="24"/><rect class="skin" x="26" y="29" width="6" height="19"/>
    </g>
    <g id="punch">
      <use href="#body"/><rect class="o" x="8" y="31" width="7" height="16"/><rect class="skin" x="9" y="33" width="5" height="12"/><rect class="o" x="29" y="30" width="8" height="15"/><rect class="skin" x="31" y="32" width="5" height="11"/><rect class="o" x="34" y="27" width="15" height="8"/><rect class="skin" x="36" y="28" width="12" height="6"/><rect class="flame" x="45" y="24" width="4" height="6"/><rect class="flame2" x="49" y="27" width="3" height="4"/><rect class="flame" x="46" y="32" width="3" height="5"/>
    </g>
    <g id="kick">
      <use href="#body"/><rect class="o" x="8" y="29" width="7" height="17"/><rect class="skin" x="9" y="31" width="5" height="14"/><rect class="o" x="32" y="31" width="7" height="15"/><rect class="skin" x="33" y="33" width="5" height="12"/><rect class="o" x="29" y="45" width="20" height="8"/><rect class="j2" x="31" y="47" width="15" height="5"/><rect class="shoe" x="45" y="47" width="8" height="5"/><rect class="flame" x="51" y="43" width="3" height="6"/><rect class="flame2" x="54" y="46" width="2" height="3"/>
    </g>
    <g id="anti">
      <use href="#body"/><rect class="o" x="8" y="31" width="7" height="15"/><rect class="skin" x="9" y="33" width="5" height="12"/><rect class="o" x="29" y="2" width="8" height="30"/><rect class="skin" x="31" y="4" width="5" height="25"/><rect class="o" x="33" y="28" width="7" height="17"/><rect class="skin" x="34" y="31" width="5" height="13"/><rect class="flame" x="35" y="0" width="5" height="8"/><rect class="flame2" x="39" y="3" width="3" height="5"/>
    </g>
    <g id="jumpPunch">
      <g transform="translate(0,-5)"><use href="#body"/></g><rect class="o" x="8" y="25" width="7" height="16"/><rect class="skin" x="9" y="27" width="5" height="12"/><rect class="o" x="29" y="24" width="8" height="14"/><rect class="skin" x="31" y="26" width="5" height="10"/><rect class="o" x="34" y="21" width="15" height="7"/><rect class="skin" x="36" y="22" width="12" height="5"/><rect class="flame" x="47" y="17" width="4" height="6"/><rect class="flame2" x="51" y="20" width="3" height="4"/>
    </g>
    <g id="jumpKick">
      <g transform="translate(0,-5)"><use href="#body"/></g><rect class="o" x="8" y="25" width="7" height="16"/><rect class="skin" x="9" y="27" width="5" height="12"/><rect class="o" x="32" y="25" width="7" height="15"/><rect class="skin" x="33" y="27" width="5" height="12"/><rect class="o" x="30" y="38" width="19" height="8"/><rect class="j2" x="32" y="39" width="14" height="5"/><rect class="shoe" x="45" y="39" width="8" height="5"/><rect class="flame" x="52" y="35" width="3" height="7"/><rect class="flame2" x="55" y="38" width="2" height="4"/>
    </g>
    <g id="sweep">
      <rect class="o" x="13" y="35" width="22" height="17"/><rect class="j" x="15" y="36" width="18" height="15"/><rect class="j2" x="15" y="36" width="5" height="15"/><rect class="shirt" x="20" y="37" width="8" height="14"/><rect class="red" x="15" y="45" width="18" height="3"/>
      <rect class="o" x="12" y="18" width="24" height="20"/><rect class="skin" x="14" y="21" width="20" height="16"/><rect class="skin2" x="30" y="28" width="3" height="4"/><rect class="h" x="10" y="14" width="29" height="8"/><rect class="h" x="13" y="21" width="8" height="6"/><rect class="h2" x="22" y="14" width="12" height="3"/><rect class="red" x="13" y="18" width="22" height="2"/><rect class="o" x="21" y="29" width="3" height="3"/><rect class="o" x="29" y="29" width="3" height="3"/>
      <rect class="o" x="8" y="42" width="7" height="14"/><rect class="skin" x="9" y="44" width="5" height="11"/><rect class="o" x="32" y="41" width="7" height="14"/><rect class="skin" x="33" y="43" width="5" height="11"/>
      <rect class="o" x="12" y="53" width="15" height="6"/><rect class="j2" x="14" y="54" width="11" height="4"/><rect class="shoe" x="8" y="55" width="9" height="4"/><rect class="o" x="25" y="51" width="22" height="7"/><rect class="j2" x="27" y="52" width="17" height="5"/><rect class="shoe" x="43" y="51" width="8" height="5"/>
    </g>
    <g id="hit">
      <g transform="translate(-3,2) rotate(-5 24 35)"><use href="#body"/></g><rect class="o" x="34" y="31" width="6" height="15"/><rect class="skin" x="35" y="32" width="4" height="12"/>
    </g>
    <g id="down">
      <g transform="translate(1,21) rotate(75 24 38)"><use href="#body"/></g>
    </g>
  </defs>
  <use href="#idle" x="0" y="0"/><use href="#idle" x="48" y="-1"/><use href="#idle" x="96" y="0"/><use href="#idle" x="144" y="-2"/><use href="#idle" x="192" y="-1"/><use href="#crouch" x="240" y="0"/><use href="#guard" x="288" y="0"/><use href="#punch" x="336" y="0"/><use href="#kick" x="384" y="0"/><use href="#anti" x="432" y="0"/><use href="#jumpPunch" x="480" y="0"/><use href="#jumpKick" x="528" y="0"/><use href="#sweep" x="576" y="0"/><use href="#hit" x="624" y="0"/>
</svg>
